<?xml version="1.0" standalone="no"?>
<!DOCTYPE svg PUBLIC "-//W3C//DTD SVG 20010904//EN"
 "http://www.w3.org/TR/2001/REC-SVG-20010904/DTD/svg10.dtd">
<svg version="1.0" xmlns="http://www.w3.org/2000/svg"
 width="144.000000pt" height="144.000000pt" viewBox="0 0 144.000000 144.000000"
 preserveAspectRatio="xMidYMid meet">
<metadata>
Created by potrace 1.11, written by Peter Selinger 2001-2013
</metadata>
<g transform="translate(0.000000,144.000000) scale(0.100000,-0.100000)"
fill="#000000" stroke="none">
<path d="M987 1339 c-121 -28 -177 -107 -177 -247 0 -70 4 -87 33 -143 40 -80
100 -141 200 -203 86 -54 97 -78 55 -124 -22 -24 -23 -24 -2 -14 55 29 40 118
-27 170 -13 10 -55 36 -94 58 -79 43 -93 57 -130 131 -24 47 -27 61 -24 142 4
80 7 94 34 132 39 56 79 78 168 94 42 8 58 13 37 13 -19 0 -52 -4 -73 -9z"/>
<path d="M1148 1325 c29 -8 68 -23 86 -32 l35 -18 -22 -65 c-12 -36 -27 -64
-32 -63 -6 2 -37 12 -70 24 -113 40 -185 11 -185 -73 0 -49 32 -83 135 -143
76 -45 136 -99 159 -144 9 -16 18 -54 22 -84 13 -107 -40 -213 -128 -258 -53
-27 -161 -35 -240 -19 -90 20 -98 29 -98 122 0 69 2 77 18 72 14 -5 15 -4 2 5
-27 19 -30 12 -30 -73 0 -62 4 -87 15 -96 8 -7 15 -20 15 -29 1 -17 76 -73
123 -90 16 -6 73 -11 128 -11 115 0 153 14 211 78 45 50 62 100 62 182 0 123
-82 242 -234 340 -88 56 -97 74 -55 115 28 29 86 33 150 10 69 -25 83 -21 106
32 19 45 19 49 4 90 -9 24 -22 46 -29 50 -7 5 -15 16 -19 25 -7 21 -87 57
-141 63 -38 5 -37 4 12 -10z"/>
<path d="M80 891 c0 -383 2 -442 15 -447 8 -4 15 -15 15 -25 0 -11 10 -23 23
-28 13 -5 29 -16 36 -25 22 -26 250 -23 333 5 168 55 254 183 265 394 9 184
-31 301 -146 426 -53 57 -85 83 -133 105 -61 28 -69 29 -235 32 l-173 4 0
-441z m356 414 c80 -23 140 -68 184 -136 52 -81 61 -113 67 -244 11 -232 -67
-385 -226 -446 -43 -17 -88 -23 -196 -28 -77 -4 -148 -5 -157 -3 -17 4 -18 33
-18 438 l0 434 148 0 c101 0 164 -5 198 -15z m-296 -895 c0 -5 -2 -10 -4 -10
-3 0 -8 5 -11 10 -3 6 -1 10 4 10 6 0 11 -4 11 -10z"/>
<path d="M240 890 l0 -290 67 0 c84 0 144 27 180 81 14 22 23 42 19 46 -3 3
-6 1 -6 -5 0 -20 -64 -85 -97 -98 -18 -8 -44 -14 -58 -14 l-25 0 0 224 c0 260
-3 252 89 243 32 -4 65 -9 74 -13 22 -8 37 -58 46 -156 7 -72 8 -76 9 -28 4
189 -82 299 -235 300 l-63 0 0 -290z"/>
<path d="M521 805 c-1 -11 -4 -31 -6 -45 l-6 -25 11 25 c6 13 9 33 7 45 -4 19
-4 19 -6 0z"/>
<path d="M889 618 c25 -11 63 -22 85 -24 l41 -3 -41 8 c-22 5 -58 17 -79 25
-54 23 -58 18 -6 -6z"/>
<path d="M1038 593 c6 -2 18 -2 25 0 6 3 1 5 -13 5 -14 0 -19 -2 -12 -5z"/>
<path d="M1310 299 l0 -52 -25 27 c-26 28 -45 32 -75 16 -13 -7 -21 -7 -25 0
-12 19 -35 10 -41 -16 l-7 -26 -16 26 c-18 30 -48 31 -43 1 3 -19 2 -18 -18 3
-22 23 -64 30 -76 10 -4 -6 1 -17 10 -24 16 -11 16 -13 -3 -19 -15 -4 -21 -15
-21 -35 0 -37 28 -53 75 -44 33 6 35 8 35 48 l1 41 22 -45 c29 -58 50 -62 70
-13 9 21 16 31 16 22 1 -18 40 -56 61 -59 34 -5 41 0 38 27 -2 15 2 28 10 30
7 3 12 -5 12 -20 0 -28 29 -45 42 -25 12 19 10 123 -4 153 -20 43 -38 31 -38
-26z m17 -81 c-2 -24 -4 -5 -4 42 0 47 2 66 4 43 2 -24 2 -62 0 -85z m-277 53
c15 -29 14 -99 -2 -83 -8 8 -15 9 -25 1 -7 -6 -20 -9 -29 -5 -19 7 -15 47 6
54 13 5 13 3 1 -12 -10 -12 -11 -20 -3 -28 18 -18 42 9 39 46 -2 25 -7 31 -25
30 -12 0 -22 3 -22 8 0 17 50 8 60 -11z m70 -48 c1 -27 19 -11 26 22 6 31 24
60 24 37 0 -19 -32 -102 -40 -102 -8 0 -41 86 -39 104 1 14 28 -45 29 -61z
m148 55 c25 -25 14 -47 -25 -50 -36 -3 -36 -4 -19 -21 10 -10 25 -16 32 -13 8
3 14 1 14 -4 0 -14 -44 -12 -58 2 -16 16 -16 70 0 86 7 7 19 12 28 12 9 0 21
-5 28 -12z"/>
<path d="M1220 265 c-10 -12 -9 -16 4 -21 9 -3 23 -3 32 0 13 5 14 9 4 21 -16
19 -24 19 -40 0z"/>
<path d="M70 252 c0 -72 2 -80 24 -91 30 -17 70 -11 74 11 2 12 -6 21 -22 28
-23 8 -26 15 -26 54 0 57 -8 76 -31 76 -17 0 -19 -8 -19 -78z m32 6 c3 -61 4
-63 33 -69 27 -6 26 -7 -12 -8 l-43 -1 0 70 c0 87 18 93 22 8z"/>
<path d="M820 320 c30 -4 45 -7 33 -8 -21 -2 -23 -7 -23 -67 0 -69 -16 -89
-23 -30 l-4 35 1 -36 c1 -23 7 -41 18 -48 24 -15 31 -3 29 50 -1 44 11 74 30
74 5 0 9 -27 9 -59 0 -45 4 -60 16 -65 24 -9 34 2 34 39 0 21 6 37 16 43 24
13 9 53 -19 51 -41 -4 -57 1 -57 16 0 12 -12 15 -57 13 l-58 -1 55 -7z m109
-40 c6 8 13 11 17 7 4 -4 -2 -14 -14 -22 -13 -10 -22 -29 -25 -53 -2 -25 -4
-19 -5 23 -1 42 1 56 8 45 9 -13 11 -13 19 0z"/>
<path d="M781 297 c9 -7 18 -19 22 -27 3 -9 6 -4 6 13 1 22 -3 27 -21 27 -20
-1 -21 -2 -7 -13z"/>
<path d="M187 293 c-4 -3 -7 -30 -7 -59 0 -66 25 -88 86 -74 21 5 46 7 56 4 9
-3 19 0 23 6 4 7 12 7 26 0 27 -15 42 -4 28 21 -6 12 -8 37 -4 59 7 44 -8 61
-33 36 -14 -14 -17 -14 -33 0 -27 24 -44 8 -24 -22 16 -25 12 -64 -6 -64 -6 0
-8 9 -4 20 6 20 -19 80 -35 80 -5 0 -12 -5 -16 -12 -5 -8 -2 -9 9 -5 15 5 17
-1 17 -46 l0 -53 -37 1 -38 0 -1 55 c-1 30 0 42 2 25 8 -59 15 -75 29 -75 19
0 37 36 32 63 -4 19 -4 18 -6 -5 -2 -37 -21 -47 -21 -10 0 29 -31 68 -43 55z
m173 -24 c16 31 24 20 9 -12 -10 -22 -9 -31 5 -52 9 -14 12 -25 7 -25 -5 0
-15 10 -23 22 l-15 22 -12 -22 c-6 -12 -16 -22 -22 -22 -5 0 -2 11 7 25 14 21
15 31 5 51 -16 36 -13 42 8 15 l19 -24 12 22z"/>
<path d="M417 293 c-4 -3 -7 -27 -7 -53 0 -35 5 -52 21 -66 22 -19 78 -21 90
-3 4 8 13 8 29 -1 27 -14 32 -10 39 37 3 20 12 38 18 40 16 6 35 -41 35 -82 0
-27 1 -28 8 -8 6 14 2 38 -11 73 -11 29 -18 55 -15 58 5 4 17 -21 30 -61 8
-26 23 -13 30 28 4 19 11 35 16 35 13 0 13 2 -10 -65 -23 -66 -25 -88 -9 -83
19 6 49 119 38 140 -14 26 -28 22 -40 -9 l-11 -28 -13 25 c-11 21 -21 25 -64
26 -51 1 -66 -8 -34 -20 9 -4 20 -1 24 6 4 7 11 9 15 5 4 -4 -2 -14 -14 -22
-13 -10 -22 -29 -25 -53 -3 -33 -4 -32 -5 12 -2 35 -6 47 -15 43 -7 -3 -19 4
-26 14 -17 28 -31 14 -31 -32 0 -21 -4 -39 -10 -39 -5 0 -10 12 -10 26 0 43
-25 76 -43 57z m23 -53 c0 -72 46 -60 53 13 3 37 4 35 5 -13 l2 -56 -37 1 -38
0 -3 53 c-2 36 0 52 7 47 6 -3 11 -24 11 -45z"/>
</g>
</svg>
